:version 1.10
:name ASF
:units
  mass 1
  length 1
  angle deg
:documentation
  ASF file generated by Kaydara
:root
  axis xyz
  order  tx ty tz rx ry rz
  position 0 0 0
  orientation 0 0 0
:bonedata
  begin
    id 1
    name RightUpLegDummy
    direction -0.65628 -0.754516 0.00165102
    length 4.76918
    axis 0 0 0 xyz
  end
  begin
    id 2
    name RightUpLeg
    direction -0.145584 -0.923362 0.355256
    length 17.9961
    axis -24.7611 -13.1006 1.78531 xyz
    dof rx ry rz
  end
  begin
    id 3
    name RightLeg
    direction 0.263379 0.172355 -0.949171
    length 13.3386
    axis 89.6202 -21.1929 12.3855 xyz
    dof rx ry rz
  end
  begin
    id 4
    name RightFoot
    direction 0.224283 -0.968777 -0.105675
    length 5.86697
    axis 56.995 -39.6905 17.3365 xyz
    dof rx ry rz
  end
  begin
    id 5
    name RightToes
    direction -0.0806345 -0.9037 0.420506
    length 4.75197
    axis 146.825 -39.7828 17.6019 xyz
    dof rx ry rz
  end
  begin
    id 6
    name SpineDummy
    direction -3.39852e-014 1 9.33296e-014
    length 8.13779
    axis 0 0 0 xyz
  end
  begin
    id 7
    name Spine
    direction -0.156609 0.733703 0.661176
    length 7.14978
    axis 41.2365 5.68757 17.0844 xyz
    dof rx ry rz
  end
  begin
    id 8
    name Spine1
    direction 0 0 0
    length 0
    axis 42.8809 47.8308 -3.36039 xyz
    dof rx ry rz
  end
  begin
    id 9
    name HEadDummy
    direction 0.546431 0.701947 0.456819
    length 3.55512
    axis 42.8809 47.8308 -3.36039 xyz
  end
  begin
    id 10
    name HEad
    direction 0.23444 0.828559 0.508457
    length 7.35827
    axis 51.1864 49.2662 27.4903 xyz
    dof rx ry rz
  end
  begin
    id 11
    name LeftShoulder1Dummy
    direction 0.431183 0.475873 -0.766568
    length 2.49352
    axis 42.8809 47.8308 -3.36039 xyz
  end
  begin
    id 12
    name LeftShoulder1
    direction 0.268187 -0.383402 -0.883786
    length 4.48604
    axis -119.517 0.106469 35.1736 xyz
    dof rx ry rz
  end
  begin
    id 13
    name LeftArm
    direction 0.380567 -0.703221 -0.600541
    length 10.1142
    axis -5.41825 36.2925 7.8293 xyz
    dof rx ry rz
  end
  begin
    id 14
    name LeftForeArm
    direction 0.541071 -0.732356 -0.413396
    length 9.39839
    axis 4.65387 33.7604 7.81644 xyz
    dof rx ry rz
  end
  begin
    id 15
    name LeftHand
    direction 0.847511 -0.389379 -0.360707
    length 3.66142
    axis 7.65593 21.1436 -24.6758 xyz
    dof rx ry rz
  end
  begin
    id 16
    name RightShoulderDummy
    direction -0.692546 0.541855 0.476208
    length 2.49352
    axis 42.8809 47.8308 -3.36039 xyz
  end
  begin
    id 17
    name RightShoulder
    direction -0.870808 -0.316653 0.376065
    length 4.48602
    axis 141.571 51.133 -100.254 xyz
    dof rx ry rz
  end
  begin
    id 18
    name RightArm
    direction 0.366897 -0.87275 0.322015
    length 10.1142
    axis 92.3258 71.2036 138.917 xyz
    dof rx ry rz
  end
  begin
    id 19
    name RightForeArm
    direction 0.702487 -0.694568 0.155197
    length 9.39835
    axis 153.863 41.5092 -176.604 xyz
    dof rx ry rz
  end
  begin
    id 20
    name RightHand
    direction 0.79502 -0.601276 0.0800636
    length 3.66142
    axis 154.247 4.59222 142.9 xyz
    dof rx ry rz
  end
  begin
    id 21
    name LeftUpLegDummy
    direction 0.65628 -0.754516 0.00165102
    length 4.76919
    axis 0 0 0 xyz
  end
  begin
    id 22
    name LeftUpLeg
    direction -0.1277 -0.689368 0.713067
    length 17.9961
    axis -48.3385 -17.8675 0.791927 xyz
    dof rx ry rz
  end
  begin
    id 23
    name LeftLeg
    direction 0.109849 -0.991246 -0.0732378
    length 13.3386
    axis -2.05791 -7.30784 1.72042 xyz
    dof rx ry rz
  end
  begin
    id 24
    name LeftFoot
    direction 0.0448355 -0.272614 0.961078
    length 5.86697
    axis -18.7733 -7.89606 10.2113 xyz
    dof rx ry rz
  end
  begin
    id 25
    name LeftToes
    direction -0.18506 0.293668 0.937823
    length 4.75197
    axis 71.2267 -7.89606 10.2113 xyz
    dof rx ry rz
  end
:hierarchy
  begin
    root RightUpLegDummy SpineDummy LeftUpLegDummy
    RightUpLegDummy RightUpLeg
    RightUpLeg RightLeg
    RightLeg RightFoot
    RightFoot RightToes
    SpineDummy Spine
    Spine Spine1
    Spine1 HEadDummy LeftShoulder1Dummy RightShoulderDummy
    HEadDummy HEad
    LeftShoulder1Dummy LeftShoulder1
    LeftShoulder1 LeftArm
    LeftArm LeftForeArm
    LeftForeArm LeftHand
    RightShoulderDummy RightShoulder
    RightShoulder RightArm
    RightArm RightForeArm
    RightForeArm RightHand
    LeftUpLegDummy LeftUpLeg
    LeftUpLeg LeftLeg
    LeftLeg LeftFoot
    LeftFoot LeftToes
  end

:SAMPLES-PER-SECOND 30
:FULLY-SPECIFIED
:DEGREES
592
root  -20.1519 15.3183 -30.3758 122.416 -34.3144 104.888
RightUpLeg  -13.0433 -11.7697 -34.895
RightLeg  -92.766 -12.2108 3.95481
RightFoot  6.73905 18.5145 -41.4971
RightToes  -1.27222e-014 -6.36111e-015 6.36111e-015
Spine  -12.3272 -19.6583 -27.1532
Spine1  24.5884 -3.18686 12.0839
HEad  35.1332 -44.0652 -14.5014
LeftShoulder1  6.36111e-015 -1.33558e-015 6.49777e-015
LeftArm  48.5506 25.7756 -3.12717
LeftForeArm  -43.598 -29.8816 5.63142
LeftHand  0.0391528 1.57171 -5.82847
RightShoulder  -4.77083e-015 -6.36111e-015 -3.18055e-015
RightArm  104.569 -34.2384 -97.1598
RightForeArm  4.19775 -5.94291 -1.1128
RightHand  21.2928 -8.33666 -74.1374
LeftUpLeg  -20.4899 18.2905 58.2015
LeftLeg  -42.3261 3.352 -8.91275
LeftFoot  -4.43906 1.79016 -6.91634
LeftToes  1.27222e-014 1.09105e-011 6.96064e-012
593
root  -20.0962 16.0958 -28.5344 138.88 -30.3998 90.4038
RightUpLeg  -11.6693 -10.1343 -34.22
RightLeg  -88.8636 -11.8292 -2.31691
RightFoot  13.4561 6.15024 -16.9694
RightToes  -1.27222e-014 -6.36111e-015 6.36111e-015
Spine  -12.7562 -20.2018 -28.0891
Spine1  23.4605 -3.49388 12.8068
HEad  33.841 -46.9123 -13.3092
LeftShoulder1  6.36111e-015 -1.33558e-015 6.49777e-015
LeftArm  42.2471 25.0937 3.65733
LeftForeArm  -62.7351 -39.6104 19.8437
LeftHand  2.18163 5.5293 0.19866
RightShoulder  -4.77083e-015 -6.36111e-015 -3.18055e-015
RightArm  100.273 -33.201 -96.8863
RightForeArm  1.87288 -9.36879 -3.15572
RightHand  22.9367 -8.66418 -77.2612
LeftUpLeg  -17.1497 16.9091 57.6273
LeftLeg  -42.0086 4.27341 -9.10355
LeftFoot  -2.92059 1.21966 -4.44559
LeftToes  1.27222e-014 1.09105e-011 6.96064e-012
594
root  -19.5158 17.3781 -26.6179 153.328 -21.7835 80.4725
RightUpLeg  -9.41466 -11.1091 -32.2907
RightLeg  -91.0213 -10.8875 -10.6626
RightFoot  15.6865 -3.05603 -2.09772
RightToes  -1.27222e-014 -6.36111e-015 6.36111e-015
Spine  -14.5476 -19.9853 -26.7692
Spine1  21.2121 -4.31871 14.3746
HEad  33.1504 -49.7875 -13.228
LeftShoulder1  6.36111e-015 -1.33558e-015 6.49777e-015
LeftArm  32.3232 26.5836 8.6992
LeftForeArm  -84.4607 -43.3 42.7413
LeftHand  3.84924 9.58576 0.67701
RightShoulder  -4.77083e-015 -6.36111e-015 -3.18055e-015
RightArm  95.2498 -30.6125 -96.7037
RightForeArm  -1.21588 -12.5681 -5.4537
RightHand  24.5623 -9.11443 -79.8177
LeftUpLeg  -14.4255 15.6456 57.285
LeftLeg  -41.2045 5.99723 -9.32533
LeftFoot  -1.98355 1.26011 -4.46263
LeftToes  1.27222e-014 1.09105e-011 6.96064e-012
595
root  -18.8099 18.8911 -25.0755 164.713 -10.446 74.3178
RightUpLeg  -10.1723 -9.69647 -30.0389
RightLeg  -88.9614 -10.4687 -13.0009
RightFoot  13.445 -1.31033 -4.02882
RightToes  -1.27222e-014 -6.36111e-015 6.36111e-015
Spine  -15.0202 -19.4418 -25.486
Spine1  18.0706 -5.22146 15.4209
HEad  33.5286 -53.5379 -15.0825
LeftShoulder1  6.36111e-015 -1.33558e-015 6.49777e-015
LeftArm  21.6707 27.534 8.3771
LeftForeArm  -105.39 -37.3786 65.9407
LeftHand  5.11029 11.9287 2.32339
RightShoulder  -4.77083e-015 -6.36111e-015 -3.18055e-015
RightArm  88.6805 -26.0926 -99.0967
RightForeArm  -3.99826 -14.25 -7.11517
RightHand  26.2905 -10.1106 -81.1472
LeftUpLeg  -10.4989 15.0638 57.8014
LeftLeg  -40.857 6.5165 -10.3016
LeftFoot  -1.1306 1.58843 -5.49926
LeftToes  1.27222e-014 1.09105e-011 6.96064e-012
596
root  -17.7994 20.6312 -23.7491 174.194 2.23932 71.5079
RightUpLeg  -11.8351 -6.65914 -28.8604
RightLeg  -87.948 -10.8813 -8.9216
RightFoot  11.8308 1.65597 -8.5907
RightToes  -1.27222e-014 -6.36111e-015 6.36111e-015
Spine  -14.2871 -18.6267 -23.8869
Spine1  14.6708 -5.90133 14.949
HEad  34.0333 -58.7404 -17.7046
LeftShoulder1  6.36111e-015 -1.33558e-015 6.49777e-015
LeftArm  11.5981 19.7321 -1.50971
LeftForeArm  -114.106 -28.8644 78.8757
LeftHand  5.98841 13.6168 3.15093
RightShoulder  -4.77083e-015 -6.36111e-015 -3.18055e-015
RightArm  80.1555 -21.8826 -102.773
RightForeArm  -5.84161 -14.3135 -7.53649
RightHand  27.173 -11.0548 -80.8307
LeftUpLeg  -5.94491 13.8268 57.6275
LeftLeg  -41.3094 5.83754 -10.5697
LeftFoot  1.59585 2.17718 -6.96433
LeftToes  1.27222e-014 1.09105e-011 6.96064e-012
597
root  -16.4243 22.6059 -22.9127 -176.314 15.7863 72.5773
RightUpLeg  -13.34 -3.91441 -28.924
RightLeg  -89.2614 -11.1343 -7.39233
RightFoot  11.6175 1.60296 -8.42564
RightToes  -1.27222e-014 -6.36111e-015 6.36111e-015
Spine  -14.1263 -18.3649 -22.4669
Spine1  11.0145 -7.06412 14.5745
HEad  33.6118 -63.0305 -19.9836
LeftShoulder1  6.36111e-015 -1.33558e-015 6.49777e-015
LeftArm  8.39275 1.87048 -16.0931
LeftForeArm  -110.937 -28.1846 85.4358
LeftHand  5.41851 13.3588 1.05322
RightShoulder  -4.77083e-015 -6.36111e-015 -3.18055e-015
RightArm  69.421 -20.7514 -104.926
RightForeArm  -7.04632 -12.3889 -7.2706
RightHand  27.4465 -12.0434 -79.2589
LeftUpLeg  -1.95117 12.6147 57.6552
LeftLeg  -42.1273 4.35356 -10.0861
LeftFoot  6.32953 3.38236 -9.48626
LeftToes  1.27222e-014 1.09105e-011 6.96064e-012
598
root  -14.9409 24.6269 -22.7656 -165.418 29.4156 78.8393
RightUpLeg  -14.9145 -1.77014 -29.0773
RightLeg  -90.0885 -11.1653 -7.30226
RightFoot  10.9995 1.9405 -8.83134
RightToes  -1.27222e-014 -6.36111e-015 6.36111e-015
Spine  -13.8925 -19.835 -22.7751
Spine1  5.65387 -9.70684 17.8344
HEad  29.5824 -62.2249 -20.3198
LeftShoulder1  6.36111e-015 -1.33558e-015 6.49777e-015
LeftArm  9.49499 -11.6171 -28.2572
LeftForeArm  -98.6156 -39.7596 76.9376
LeftHand  4.30363 11.4297 -0.69824
RightShoulder  -4.77083e-015 -6.36111e-015 -3.18055e-015
RightArm  54.8205 -23.6443 -99.1956
RightForeArm  -8.02669 -11.0736 -7.09568
RightHand  27.2351 -13.2151 -76.4187
LeftUpLeg  2.21868 11.8624 59.3887
LeftLeg  -43.2759 3.27806 -10.6421
LeftFoot  11.2802 4.49721 -11.1111
LeftToes  1.27222e-014 1.09105e-011 6.96064e-012
